<?xml version="1.0" encoding="utf-8"?>
<!-- Generator: Adobe Illustrator 24.1.0, SVG Export Plug-In . SVG Version: 6.00 Build 0)  -->
<svg version="1.1" id="Vrstva_1" xmlns="http://www.w3.org/2000/svg" xmlns:xlink="http://www.w3.org/1999/xlink" x="0px" y="0px"
	 viewBox="0 0 36 36" style="enable-background:new 0 0 36 36;" xml:space="preserve">
<style type="text/css">
	.st0{fill-rule:evenodd;clip-rule:evenodd;fill:#FFFFFF;}
</style>
<g>
	<polygon class="st0" points="11,21 9,21 9,25 9,27 11,27 15,27 15,25 11,25 	"/>
	<polygon class="st0" points="25,25 21,25 21,27 25,27 27,27 27,25 27,21 25,21 	"/>
	<polygon class="st0" points="25,9 21,9 21,11 25,11 25,15 27,15 27,11 27,9 	"/>
	<polygon class="st0" points="9,9 9,11 9,15 11,15 11,11 15,11 15,9 11,9 	"/>
</g>
</svg>
