<?xml version="1.0" encoding="utf-8"?>
<!-- Generator: Adobe Illustrator 24.1.0, SVG Export Plug-In . SVG Version: 6.00 Build 0)  -->
<svg version="1.1" id="Vrstva_1" xmlns="http://www.w3.org/2000/svg" xmlns:xlink="http://www.w3.org/1999/xlink" x="0px" y="0px"
	 viewBox="0 0 36 36" style="enable-background:new 0 0 36 36;" xml:space="preserve">
<style type="text/css">
	.st0{fill-rule:evenodd;clip-rule:evenodd;fill:#FFFFFF;}
</style>
<g>
	<polygon class="st0" points="9,20 9,22 14,22 14,27 16,27 16,22 16,20 14,20 	"/>
	<polygon class="st0" points="20,20 20,22 20,27 22,27 22,22 27,22 27,20 22,20 	"/>
	<polygon class="st0" points="22,14 22,9 20,9 20,14 20,16 22,16 27,16 27,14 	"/>
	<polygon class="st0" points="14,14 9,14 9,16 14,16 16,16 16,14 16,9 14,9 	"/>
</g>
</svg>
