<svg xmlns="http://www.w3.org/2000/svg" width="36" height="36" viewBox="0 0 36 36">
  <defs>
    <style>
      .cls-1 {
        fill: #fff;
        fill-rule: evenodd;
      }
    </style>
  </defs>
  <g id="sound_mute">
    <path id="Tvar_1769" data-name="Tvar 1769" class="cls-1" d="M452,394a4,4,0,0,0-2.221-3.578v1.962l2.183,2.182A4.046,4.046,0,0,0,452,394Zm2.221,0a6.188,6.188,0,0,1-.479,2.345l1.345,1.346A7.911,7.911,0,0,0,456,394a8,8,0,0,0-6.221-7.794v1.837A6.217,6.217,0,0,1,454.221,394ZM448,386.887l-1.858,1.858L448,390.6v-3.716ZM441.133,386L440,387.133l4.2,4.2H440v5.332h3.554L448,401.109v-5.978l3.783,3.782a6.3,6.3,0,0,1-2,1.05V401.8a7.983,7.983,0,0,0,3.275-1.608L454.867,402,456,400.867l-8-8Z" transform="translate(-430 -376)"/>
  </g>
</svg>
